HIERARCHY
ROOT Hips
{
	OFFSET 0.00 0.00 0.00
	CHANNELS 6 Xposition Yposition Zposition Xrotation Yrotation Zrotation
	JOINT Spine
	{
		OFFSET 0.00000 1.70439 2.55658
		CHANNELS 3 Xrotation Yrotation Zrotation
		JOINT Spine1
		{
			OFFSET 0.00000 0.59193 3.35699
			CHANNELS 3 Xrotation Yrotation Zrotation
			JOINT Spine2
			{
				OFFSET 0.00000 0.29710 3.39581
				CHANNELS 3 Xrotation Yrotation Zrotation
				JOINT Spine3
				{
					OFFSET 0.00000 0.00000 3.40878
					CHANNELS 3 Xrotation Yrotation Zrotation
					JOINT Neck
					{
						OFFSET 0.00000 -1.27828 8.94804
						CHANNELS 3 Xrotation Yrotation Zrotation
						JOINT Head
						{
							OFFSET 0.00000 -0.81390 4.61586
							CHANNELS 3 Xrotation Yrotation Zrotation
							End Site
							{
								OFFSET 0.00000 0.00001 5.51796
							}
						}
					}
					JOINT RightShoulder
					{
						OFFSET -1.18875 -1.98124 6.41925
						CHANNELS 3 Xrotation Yrotation Zrotation
						JOINT RightArm
						{
							OFFSET -5.90412 0.00000 0.00000
							CHANNELS 3 Xrotation Yrotation Zrotation
							JOINT RightForeArm
							{
								OFFSET -11.94674 0.00000 0.00000
								CHANNELS 3 Xrotation Yrotation Zrotation
								JOINT RightHand
								{
									OFFSET -10.17720 0.00000 0.00000
									CHANNELS 3 Xrotation Yrotation Zrotation
									JOINT RightHandEnd
									{
										OFFSET -2.84518 0.00000 0.00000
										CHANNELS 3 Xrotation Yrotation Zrotation
										End Site
										{
											OFFSET -2.84518 0.00000 0.00000
										}
									}
									JOINT RightHandThumb1
									{
										OFFSET -1.13807 -1.89679 -0.75871
										CHANNELS 3 Yrotation Xrotation Zrotation
										End Site
										{
											OFFSET -2.74823 -0.73639 0.00000
										}
									}
								}
							}
						}
					}
					JOINT LeftShoulder
					{
						OFFSET 1.18875 -1.98124 6.41925
						CHANNELS 3 Xrotation Yrotation Zrotation
						JOINT LeftArm
						{
							OFFSET 5.90412 0.00000 0.00000
							CHANNELS 3 Xrotation Yrotation Zrotation
							JOINT LeftForeArm
							{
								OFFSET 11.94674 0.00000 0.00000
								CHANNELS 3 Xrotation Yrotation Zrotation
								JOINT LeftHand
								{
									OFFSET 10.17720 0.00000 0.00000
									CHANNELS 3 Xrotation Yrotation Zrotation
									JOINT LeftHandEnd
									{
										OFFSET 2.84518 0.00000 0.00000
										CHANNELS 3 Xrotation Yrotation Zrotation
										End Site
										{
											OFFSET 2.84518 0.00000 0.00000
										}
									}
									JOINT LeftHandThumb1
									{
										OFFSET 1.13807 -1.89679 -0.75871
										CHANNELS 3 Yrotation Xrotation Zrotation
										End Site
										{
											OFFSET 2.74823 -0.73639 0.00000
										}
									}
								}
							}
						}
					}
				}
			}
		}
	}
	JOINT RightUpLeg
	{
		OFFSET -3.52662 0.00000 -1.03025
		CHANNELS 3 Xrotation Yrotation Zrotation
		JOINT RightLeg
		{
			OFFSET 0.00001 0.00000 -17.80159
			CHANNELS 3 Xrotation Yrotation Zrotation
			JOINT RightFoot
			{
				OFFSET 0.00001 0.00000 -16.85992
				CHANNELS 3 Xrotation Yrotation Zrotation
				JOINT RightToeBase
				{
					OFFSET 0.00000 -5.42953 -1.97619
					CHANNELS 3 Xrotation Yrotation Zrotation
					End Site
					{
						OFFSET 0.00000 -2.85300 -0.00000
					}
				}
			}
		}
	}
	JOINT LeftUpLeg
	{
		OFFSET 3.52662 0.00000 -1.03025
		CHANNELS 3 Xrotation Yrotation Zrotation
		JOINT LeftLeg
		{
			OFFSET 0.00001 0.00000 -17.80159
			CHANNELS 3 Xrotation Yrotation Zrotation
			JOINT LeftFoot
			{
				OFFSET 0.00001 0.00000 -16.85992
				CHANNELS 3 Xrotation Yrotation Zrotation
				JOINT LeftToeBase
				{
					OFFSET 0.00000 -5.42953 -1.97619
					CHANNELS 3 Xrotation Yrotation Zrotation
					End Site
					{
						OFFSET 0.00000 -2.85300 -0.00000
					}
				}
			}
		}
	}
}
MOTION
Frames: 18
Frame Time: 0.008342
 -3.9427 9.0977 35.3778 -8.7767 3.3663 179.8258 6.6257 -0.9857 -2.2608 2.5328 -0.5620 -0.4403 1.7909 -3.7590 -5.7840 0.7148 -0.6556 0.3450 10.3110 -6.1511 -4.9108 7.6926 -3.4462 -1.4915 14.5157 -21.4414 -3.6490 -2.9612 -43.9454 9.2379 -0.0000 0.0001 61.7411 12.4321 37.0068 -3.3349 -0.0000 0.0000 0.0000 -0.0000 0.0000 -0.0000 11.4395 7.2659 -7.5318 36.0916 46.1541 -41.2370 -0.0000 -0.0000 -59.8949 9.9622 -36.3532 -9.2322 0.0000 -0.0000 -0.0000 0.0000 -0.0000 -0.0000 -42.4113 7.8850 -11.3489 45.3793 0.0000 0.0000 -10.4653 4.9185 -12.1724 -0.2625 0.0000 -0.0000 -1.1774 1.5936 -3.3636 40.8493 0.0000 0.0000 -12.8447 7.5461 4.0865 -31.8671 0.0000 -0.0000
 -3.9220 9.1851 35.5901 -8.7993 3.3876 -179.8637 6.4676 -0.9452 -2.2534 2.5015 -0.5675 -0.4392 1.7591 -3.7185 -5.7759 0.6816 -0.6223 0.3277 10.2136 -6.2030 -5.0292 7.6226 -3.4378 -1.6007 14.4534 -21.3972 -3.7727 -3.5300 -43.8617 8.7073 -0.0000 0.0001 62.1080 12.0747 36.8068 -3.3843 0.0000 0.0000 -0.0000 0.0000 0.0000 -0.0000 11.3676 7.2192 -7.6188 36.1607 45.9806 -41.2836 -0.0000 -0.0000 -60.2875 9.8078 -35.8618 -8.9510 -0.0000 -0.0000 -0.0000 -0.0000 0.0000 -0.0000 -41.2830 8.0625 -12.0511 43.6608 0.0000 0.0000 -10.1682 4.9339 -11.7419 0.0520 0.0000 0.0000 -0.9402 1.5339 -3.5003 39.9175 0.0000 0.0000 -11.1043 7.4585 3.8057 -31.8388 0.0000 -0.0000
 -3.9015 9.2697 35.7920 -8.8115 3.3997 -179.5655 6.3182 -0.9096 -2.2445 2.4713 -0.5701 -0.4375 1.7308 -3.6819 -5.7537 0.6484 -0.5909 0.3119 10.1234 -6.2304 -5.1302 7.5553 -3.4309 -1.7181 14.4109 -21.3247 -3.8794 -4.0715 -43.8012 8.1899 -0.0000 0.0001 62.4281 11.7227 36.6454 -3.4366 0.0000 -0.0000 0.0000 0.0000 -0.0000 -0.0000 11.2874 7.1902 -7.6734 36.1608 45.8486 -41.2824 -0.0000 -0.0000 -60.6107 9.8055 -35.4110 -8.6711 0.0000 -0.0000 0.0000 0.0000 0.0000 0.0000 -40.1802 8.2153 -12.7853 41.9814 0.0000 0.0000 -9.8087 4.9505 -11.3186 0.3605 0.0000 0.0000 -0.7341 1.4534 -3.5719 39.0482 0.0000 0.0000 -9.5176 7.4299 3.5176 -31.5161 0.0000 -0.0000
 -3.8815 9.3508 35.9825 -8.8110 3.4045 -179.2810 6.1794 -0.8726 -2.2348 2.4509 -0.5756 -0.4368 1.6973 -3.6470 -5.7200 0.6157 -0.5628 0.2984 10.0408 -6.2332 -5.2135 7.4905 -3.4229 -1.8385 14.3824 -21.2212 -3.9656 -4.5760 -43.7620 7.6863 -0.0000 0.0001 62.7074 11.4004 36.5243 -3.5008 0.0000 -0.0000 0.0000 0.0000 -0.0000 -0.0000 11.2073 7.1747 -7.7005 36.0935 45.7616 -41.2354 -0.0000 -0.0001 -60.8735 9.8948 -35.0220 -8.4201 0.0000 -0.0000 -0.0000 -0.0000 -0.0000 0.0000 -39.1129 8.3438 -13.5367 40.3681 0.0000 0.0000 -9.3789 4.9693 -10.9056 0.6261 0.0000 0.0000 -0.5571 1.3546 -3.5755 38.2475 0.0000 0.0000 -8.1436 7.4727 3.2402 -30.9108 0.0000 -0.0000
 -3.8621 9.4278 36.1609 -8.7967 3.4043 -179.0087 6.0578 -0.8382 -2.2250 2.4329 -0.5757 -0.4356 1.6623 -3.6148 -5.6805 0.5823 -0.5384 0.2861 9.9657 -6.2119 -5.2751 7.4303 -3.4179 -1.9602 14.3738 -21.0912 -4.0241 -5.0489 -43.7396 7.1969 -0.0000 0.0001 62.9478 11.1237 36.4386 -3.5682 0.0000 0.0000 -0.0000 0.0000 -0.0000 -0.0000 11.1358 7.1717 -7.7042 35.9581 45.7143 -41.1393 -0.0000 -0.0001 -61.0870 10.0015 -34.7095 -8.2178 0.0000 -0.0000 0.0000 -0.0000 0.0000 0.0000 -38.0895 8.4504 -14.2892 38.8427 0.0000 0.0000 -8.8832 4.9918 -10.5058 0.8193 0.0000 0.0000 -0.4098 1.2406 -3.5129 37.5224 0.0000 0.0000 -7.0389 7.5961 2.9939 -30.0577 0.0000 -0.0000
 -3.8435 9.5001 36.3265 -8.7694 3.4040 -178.7436 5.9541 -0.8031 -2.2157 2.4193 -0.5666 -0.4325 1.6220 -3.5878 -5.6408 0.5492 -0.5171 0.2750 9.8971 -6.1705 -5.3191 7.3761 -3.4147 -2.0802 14.3806 -20.9435 -4.0566 -5.4855 -43.7229 6.7249 -0.0000 0.0001 63.1524 10.9045 36.3775 -3.6377 -0.0000 0.0000 0.0000 0.0000 0.0000 0.0000 11.0786 7.1795 -7.6941 35.7502 45.7052 -40.9874 -0.0000 -0.0001 -61.2607 10.0578 -34.4775 -8.0767 0.0000 -0.0000 -0.0000 0.0000 -0.0000 0.0000 -37.1171 8.5424 -15.0277 37.4214 0.0000 0.0000 -8.3383 5.0209 -10.1218 0.9223 0.0000 0.0000 -0.2939 1.1171 -3.3929 36.8774 0.0000 0.0000 -6.2502 7.8058 2.8005 -29.0104 0.0000 -0.0000
 -3.8258 9.5673 36.4790 -8.7338 3.4097 -178.4795 5.8618 -0.7567 -2.2048 2.4162 -0.5617 -0.4312 1.5730 -3.5555 -5.6007 0.5175 -0.4989 0.2628 9.8347 -6.1152 -5.3482 7.3263 -3.4140 -2.1985 14.4011 -20.7941 -4.0655 -5.8849 -43.6962 6.2745 -0.0000 0.0001 63.3246 10.7544 36.3257 -3.7146 -0.0000 0.0000 -0.0000 0.0000 -0.0000 0.0000 11.0420 7.1964 -7.6776 35.4677 45.7252 -40.7785 -0.0000 -0.0001 -61.4015 10.0248 -34.3327 -7.9836 -0.0000 -0.0000 -0.0000 0.0000 -0.0000 0.0000 -36.2042 8.6279 -15.7362 36.1133 0.0000 0.0000 -7.7684 5.0599 -9.7574 0.9316 0.0000 0.0000 -0.2149 0.9910 -3.2268 36.3122 0.0000 0.0000 -5.8103 8.1024 2.6807 -27.8304 0.0000 -0.0000
 -3.8094 9.6289 36.6182 -8.6893 3.4269 -178.2085 5.7905 -0.7063 -2.1960 2.4065 -0.5388 -0.4256 1.5243 -3.5283 -5.5682 0.4869 -0.4829 0.2519 9.7777 -6.0508 -5.3694 7.2816 -3.4165 -2.3141 14.4285 -20.6552 -4.0586 -6.2464 -43.6495 5.8487 -0.0000 0.0001 63.4641 10.6634 36.2684 -3.7824 0.0000 -0.0000 -0.0000 -0.0000 0.0000 0.0000 11.0180 7.2263 -7.6667 35.1099 45.7728 -40.4960 -0.0000 -0.0001 -61.5197 9.8609 -34.2583 -7.9429 -0.0000 -0.0000 0.0000 0.0000 -0.0000 0.0000 -35.3500 8.7173 -16.4044 34.9210 0.0000 0.0000 -7.2028 5.1102 -9.4148 0.8558 0.0000 0.0000 -0.1716 0.8692 -3.0312 35.8195 0.0000 0.0000 -5.7336 8.4817 2.6542 -26.5794 0.0000 -0.0000
 -3.7941 9.6851 36.7441 -8.6404 3.4591 -177.9253 5.7302 -0.6399 -2.1858 2.4010 -0.5196 -0.4216 1.4723 -3.4911 -5.5390 0.4583 -0.4675 0.2405 9.7232 -5.9855 -5.3882 7.2440 -3.4221 -2.4267 14.4621 -20.5421 -4.0421 -6.5742 -43.5740 5.4516 -0.0000 0.0001 63.5704 10.6197 36.1921 -3.8377 -0.0000 0.0000 -0.0000 0.0000 0.0000 -0.0000 11.0090 7.2636 -7.6654 34.6768 45.8429 -40.1462 -0.0000 -0.0001 -61.6152 9.5600 -34.2457 -7.9384 0.0000 0.0000 0.0000 -0.0000 -0.0000 0.0000 -34.5568 8.8156 -17.0227 33.8396 0.0000 0.0000 -6.6703 5.1738 -9.0988 0.7156 0.0000 0.0000 -0.1662 0.7551 -2.8187 35.3839 0.0000 0.0000 -6.0138 8.9341 2.7347 -25.3103 0.0000 -0.0000
 -3.7798 9.7359 36.8569 -8.5867 3.5095 -177.6259 5.6835 -0.5609 -2.1747 2.3972 -0.4857 -0.4141 1.4161 -3.4585 -5.5183 0.4329 -0.4527 0.2286 9.6707 -5.9189 -5.4084 7.2146 -3.4324 -2.5375 14.4956 -20.4682 -4.0192 -6.8687 -43.4531 5.0793 -0.0000 0.0001 63.6485 10.6025 36.0920 -3.8797 0.0000 -0.0000 -0.0000 -0.0000 -0.0000 0.0000 11.0147 7.3226 -7.6801 34.1613 45.9193 -39.7162 -0.0000 -0.0001 -61.6967 9.1348 -34.2815 -7.9477 -0.0000 0.0000 -0.0000 -0.0000 -0.0000 0.0000 -33.8202 8.9276 -17.5842 32.8608 0.0000 0.0000 -6.1964 5.2497 -8.8144 0.5384 0.0000 0.0000 -0.1929 0.6523 -2.6012 34.9806 0.0000 0.0000 -6.6219 9.4445 2.9313 -24.0649 0.0000 -0.0000
 -3.7665 9.7813 36.9568 -8.5370 3.5766 -177.3069 5.6398 -0.4637 -2.1628 2.3914 -0.4587 -0.4085 1.3641 -3.4124 -5.4999 0.4123 -0.4367 0.2158 9.6162 -5.8616 -5.4344 7.1932 -3.4438 -2.6453 14.5292 -20.4388 -3.9972 -7.1377 -43.2951 4.7381 -0.0000 0.0001 63.6921 10.5819 35.9626 -3.8988 0.0000 0.0000 0.0000 -0.0000 -0.0000 0.0000 11.0217 7.3889 -7.7073 33.5783 46.0152 -39.2229 -0.0000 -0.0001 -61.7572 8.6209 -34.3437 -7.9578 -0.0000 -0.0000 0.0000 -0.0000 -0.0000 0.0000 -33.1457 9.0538 -18.0863 31.9752 0.0000 0.0000 -5.7992 5.3363 -8.5680 0.3560 0.0000 0.0000 -0.2574 0.5604 -2.3887 34.5860 0.0000 0.0000 -7.5112 9.9934 3.2472 -22.8713 0.0000 -0.0000
 -3.7542 9.8218 37.0442 -8.4879 3.6609 -176.9696 5.6050 -0.3520 -2.1489 2.3803 -0.4265 -0.4029 1.3170 -3.3622 -5.4847 0.3969 -0.4214 0.2025 9.5596 -5.8103 -5.4669 7.1793 -3.4575 -2.7514 14.5556 -20.4528 -3.9812 -7.3825 -43.1028 4.4240 -0.0000 0.0001 63.7015 10.5286 35.8061 -3.8952 -0.0000 0.0000 -0.0000 0.0000 0.0000 -0.0000 11.0295 7.4675 -7.7477 32.9276 46.1267 -38.6689 -0.0000 -0.0001 -61.7967 8.0586 -34.4174 -7.9539 0.0000 0.0000 0.0000 -0.0000 -0.0000 0.0000 -32.5259 9.1946 -18.5274 31.1732 0.0000 0.0000 -5.4897 5.4311 -8.3649 0.1991 0.0000 0.0000 -0.3485 0.4806 -2.1855 34.1682 0.0000 0.0000 -8.6133 10.5580 3.6777 -21.7481 0.0000 -0.0000
 -3.7424 9.8574 37.1194 -8.4452 3.7556 -176.6153 5.5674 -0.2294 -2.1343 2.3685 -0.3916 -0.3958 1.2774 -3.3111 -5.4720 0.3849 -0.4015 0.1883 9.5039 -5.7688 -5.5071 7.1714 -3.4716 -2.8521 14.5907 -20.5113 -3.9598 -7.6263 -42.8821 4.1270 -0.0000 0.0001 63.6764 10.4092 35.6333 -3.8678 -0.0000 -0.0000 0.0000 -0.0000 -0.0000 0.0000 11.0408 7.5580 -7.8018 32.2051 46.2510 -38.0535 -0.0000 -0.0001 -61.8177 7.4982 -34.4932 -7.9153 -0.0000 0.0000 -0.0000 -0.0000 0.0000 -0.0000 -31.9650 9.3442 -18.9099 30.4496 0.0000 0.0000 -5.2694 5.5305 -8.2123 0.0921 0.0000 0.0000 -0.4681 0.4070 -1.9926 33.7056 0.0000 0.0000 -9.8508 11.1143 4.2096 -20.7040 0.0000 -0.0000
 -3.7307 9.8882 37.1828 -8.4123 3.8523 -176.2468 5.5257 -0.0932 -2.1206 2.3535 -0.3746 -0.3926 1.2475 -3.2451 -5.4532 0.3770 -0.3851 0.1771 9.4467 -5.7318 -5.5556 7.1696 -3.4861 -2.9497 14.6215 -20.6008 -3.9494 -7.8604 -42.6517 3.8558 -0.0000 0.0001 63.6108 10.2009 35.4525 -3.8209 -0.0000 0.0000 0.0000 -0.0000 -0.0000 -0.0000 11.0363 7.6564 -7.8727 31.4271 46.4092 -37.3792 -0.0000 -0.0001 -61.8179 6.9820 -34.5473 -7.8449 -0.0000 -0.0000 0.0000 -0.0000 -0.0000 0.0000 -31.4649 9.4942 -19.2364 29.7985 0.0000 0.0000 -5.1306 5.6320 -8.1190 0.0509 0.0000 0.0000 -0.6178 0.3314 -1.8057 33.1844 0.0000 0.0000 -11.1375 11.6399 4.8194 -19.7429 0.0000 -0.0000
 -3.7189 9.9153 37.2349 -8.3724 3.9397 -175.8726 5.4912 0.0397 -2.1037 2.3392 -0.3574 -0.3877 1.2272 -3.1819 -5.4371 0.3729 -0.3670 0.1641 9.3914 -5.7002 -5.6027 7.1722 -3.4981 -3.0420 14.6505 -20.7127 -3.9278 -8.0960 -42.4200 3.5892 -0.0000 0.0001 63.5086 9.8793 35.2752 -3.7565 0.0000 0.0000 0.0000 0.0000 -0.0000 0.0000 11.0362 7.7595 -7.9370 30.5970 46.5823 -36.6829 -0.0000 -0.0001 -61.7868 6.5331 -34.5929 -7.7386 0.0000 0.0000 -0.0000 0.0000 0.0000 -0.0000 -31.0054 9.6315 -19.5132 29.2173 0.0000 0.0000 -5.0622 5.7335 -8.0882 0.0816 0.0000 0.0000 -0.7721 0.2421 -1.6167 32.5907 0.0000 0.0000 -12.3870 12.1152 5.4796 -18.8636 0.0000 -0.0000
 -3.7064 9.9388 37.2759 -8.3295 4.0029 -175.4960 5.4574 0.1589 -2.0853 2.3247 -0.3449 -0.3836 1.2192 -3.1202 -5.4204 0.3719 -0.3498 0.1514 9.3402 -5.6695 -5.6468 7.1774 -3.5089 -3.1272 14.6803 -20.8355 -3.8952 -8.3358 -42.2006 3.3299 -0.0000 0.0001 63.3667 9.4375 35.1124 -3.6845 0.0000 0.0000 -0.0000 0.0000 0.0000 -0.0000 11.0348 7.8659 -7.9942 29.7256 46.7751 -35.9692 -0.0000 -0.0001 -61.7247 6.1610 -34.6257 -7.6054 -0.0000 0.0000 0.0000 0.0000 -0.0000 0.0000 -30.5914 9.7423 -19.7479 28.7072 0.0000 0.0000 -5.0476 5.8336 -8.1257 0.1805 0.0000 0.0000 -0.9382 0.1248 -1.4188 31.9369 0.0000 0.0000 -13.5247 12.5272 6.1567 -18.0625 0.0000 -0.0000
 -3.6932 9.9576 37.3057 -8.2946 4.0373 -175.1212 5.4133 0.2574 -2.0681 2.3116 -0.3245 -0.3768 1.2212 -3.0725 -5.4030 0.3732 -0.3326 0.1394 9.2956 -5.6367 -5.6854 7.1843 -3.5166 -3.2054 14.7122 -20.9516 -3.8556 -8.5760 -42.0133 3.0880 -0.0000 0.0001 63.1777 8.8727 34.9785 -3.6051 0.0000 -0.0000 0.0000 -0.0000 -0.0000 0.0000 11.0209 7.9698 -8.0495 28.8241 47.0057 -35.2323 -0.0000 -0.0001 -61.6370 5.8706 -34.6381 -7.4527 -0.0000 0.0000 -0.0000 -0.0000 0.0000 -0.0000 -30.2420 9.8251 -19.9407 28.2822 0.0000 0.0000 -5.0736 5.9320 -8.2332 0.3357 0.0000 0.0000 -1.1337 -0.0212 -1.2095 31.2502 0.0000 0.0000 -14.4911 12.8686 6.8217 -17.3347 0.0000 -0.0000
 -3.6794 9.9729 37.3247 -8.2471 4.0319 -174.7541 5.3773 0.3257 -2.0488 2.2992 -0.3016 -0.3726 1.2341 -3.0364 -5.3850 0.3759 -0.3176 0.1289 9.2610 -5.5980 -5.7151 7.1916 -3.5223 -3.2745 14.7474 -21.0541 -3.8003 -8.8163 -41.8601 2.8588 -0.0000 0.0001 62.9455 8.1954 34.8776 -3.5292 -0.0000 0.0000 0.0000 -0.0000 -0.0000 0.0000 11.0063 8.0704 -8.0927 27.9019 47.2592 -34.4954 -0.0000 -0.0001 -61.5190 5.6281 -34.6461 -7.3015 0.0000 0.0000 -0.0000 0.0000 -0.0000 -0.0000 -29.9349 9.8689 -20.1018 27.9462 0.0000 0.0000 -5.1289 6.0293 -8.4060 0.5312 0.0000 0.0000 -1.3372 -0.2070 -0.9854 30.5581 0.0000 0.0000 -15.2459 13.1392 7.4447 -16.6750 0.0000 -0.0000
